<svg xmlns="http://www.w3.org/2000/svg" xmlns:xlink="http://www.w3.org/1999/xlink" xmlns:lucid="lucid" width="1152" height="706"><g transform="translate(-79 -179)" lucid:page-tab-id="0_0"><path d="M700 470c27.6 0 50 22.4 50 50s-22.4 50-50 50h-90c-27.6 0-50-22.4-50-50s22.4-50 50-50z" stroke="#9391ff" stroke-width="2" fill="url(#a)"/><use xlink:href="#b" transform="matrix(1,0,0,1,565,475) translate(23.322482638888914 52.25043402777777)"/><path d="M100 486a6 6 0 0 1 6-6h148a6 6 0 0 1 6 6v68a6 6 0 0 1-6 6H106a6 6 0 0 1-6-6z" stroke="#ff8f8f" stroke-width="2" fill="#ffd9d9"/><use xlink:href="#c" transform="matrix(1,0,0,1,112,492) translate(14.657986111111128 32.50043402777777)"/><use xlink:href="#d" transform="matrix(1,0,0,1,112,492) translate(81.33550347222221 32.50043402777777)"/><path d="M262 520h278.5" stroke="#3a414a" stroke-width="2" stroke-linejoin="round" fill="none"/><path d="M262.03 520.98H261V519h1.03z" stroke="#3a414a" stroke-width=".05" fill="#3a414a"/><path d="M555.76 520l-14.26 4.63v-9.26z" stroke="#3a414a" stroke-width="2" fill="#3a414a"/><path d="M200 206a6 6 0 0 1 6-6h148a6 6 0 0 1 6 6v68a6 6 0 0 1-6 6H206a6 6 0 0 1-6-6z" stroke="#8ee895" stroke-width="2" fill="#c3f7c8"/><use xlink:href="#e" transform="matrix(1,0,0,1,212,212) translate(41.32899305555557 22.000434027777768)"/><use xlink:href="#f" transform="matrix(1,0,0,1,212,212) translate(27.99348958333335 47.174045138888864)"/><path d="M362 240.02l1.17.02 2.12.14 2.05.22 2.04.3 2 .38 1.98.46 1.97.56 1.97.64 1.97.73 1.98.83 2 .95 2.03 1.06 2.08 1.2 2.1 1.34 2.18 1.5 2.24 1.7 2.32 1.93 2.4 2.18 2.55 2.5 2.67 2.84 2.85 3.28 3.04 3.85 3.3 4.55 3.6 5.45 4.04 6.67 4.6 8.37 5.43 10.97 6.87 15.47 10.55 26.86 34.3 92.93 6.87 15.46 5.42 10.97 4.6 8.37 4.03 6.67 3.6 5.45 3.3 4.55 3.06 3.85 2.86 3.3 2.67 2.85 2.53 2.48 2.42 2.18 2.32 1.92 2.24 1.7 2.17 1.5 2.12 1.35 2.07 1.2 2.02 1.05 2 .95 2 .83.2.08" stroke="#3a414a" stroke-width="2" stroke-linejoin="round" fill="none"/><path d="M362.05 239.05L362 241l-1-.03v-1.94z" stroke="#3a414a" stroke-width=".05" fill="#3a414a"/><path d="M555.82 519.4l-14.88 1.93 1.7-9.1z" stroke="#3a414a" stroke-width="2" fill="#3a414a"/><path d="M170 766a6 6 0 0 1 6-6h208a6 6 0 0 1 6 6v92a6 6 0 0 1-6 6H176a6 6 0 0 1-6-6z" stroke="#b5d6ff" stroke-width="2" fill="#cfe4ff"/><use xlink:href="#g" transform="matrix(1,0,0,1,182,772) translate(24.654730902777814 21.031684027777768)"/><use xlink:href="#h" transform="matrix(1,0,0,1,182,772) translate(118.00325520833333 21.031684027777768)"/><use xlink:href="#i" transform="matrix(1,0,0,1,182,772) translate(11.319227430555586 46.205295138888864)"/><use xlink:href="#j" transform="matrix(1,0,0,1,182,772) translate(158.009765625 46.205295138888864)"/><use xlink:href="#k" transform="matrix(1,0,0,1,182,772) translate(57.99348958333335 71.37890624999996)"/><path d="M392 811.98h.5l1.48-.1 1.44-.16 1.43-.2 1.42-.28 1.4-.33 1.4-.38 1.42-.46 1.4-.53 1.45-.6 1.45-.68 1.47-.78 1.52-.87 1.53-.98 1.6-1.1 1.65-1.27 1.72-1.42 1.8-1.62 1.9-1.84 1.98-2.13 2.13-2.46 2.28-2.87 2.46-3.4 2.68-4.03 2.96-4.9 3.3-6.03 3.8-7.64 4.45-10.03 5.5-13.97 7.64-22.04 39.3-127.76 5.5-13.97 4.45-10.02 3.8-7.64 3.3-6.04 2.96-4.9 2.68-4.03 2.46-3.4 2.27-2.87 2.12-2.46 2-2.13 1.88-1.85 1.8-1.63 1.72-1.42 1.65-1.26 1.6-1.12 1.54-.98 1.13-.65" stroke="#3a414a" stroke-width="2" stroke-linejoin="round" fill="none"/><path d="M392.05 812.95l-1.05.02v-1.95l1-.02z" stroke="#3a414a" stroke-width=".05" fill="#3a414a"/><path d="M555.87 520.84l-12.57 8.18-2.4-8.95z" stroke="#3a414a" stroke-width="2" fill="#3a414a"/><path d="M980 206a6 6 0 0 1 6-6h148a6 6 0 0 1 6 6v68a6 6 0 0 1-6 6H986a6 6 0 0 1-6-6z" stroke="#febed9" stroke-width="2" fill="#fff0f0"/><use xlink:href="#c" transform="matrix(1,0,0,1,992,212) translate(14.657986111111128 32.50043402777777)"/><use xlink:href="#d" transform="matrix(1,0,0,1,992,212) translate(81.33550347222221 32.50043402777777)"/><path d="M1050 486a6 6 0 0 1 6-6h148a6 6 0 0 1 6 6v68a6 6 0 0 1-6 6h-148a6 6 0 0 1-6-6z" stroke="#eec4ff" stroke-width="2" fill="#f4d9ff"/><use xlink:href="#l" transform="matrix(1,0,0,1,1062,492) translate(7.990234375000028 32.50043402777777)"/><path d="M980 776.35a6 6 0 0 1 6-6h188a6 6 0 0 1 6 6V858a6 6 0 0 1-6 6H986a6 6 0 0 1-6-6z" stroke="#00c2a8" stroke-width="2" fill="#d7faf5"/><use xlink:href="#m" transform="matrix(1,0,0,1,992,782.3472222222222) translate(34.657986111111136 27.250434027777768)"/><use xlink:href="#n" transform="matrix(1,0,0,1,992,782.3472222222222) translate(7.986979166666686 52.42404513888887)"/><path d="M752 520.02l1.7.04 2.64.16 2.57.27 2.53.36 2.48.48 2.46.57 2.43.7 2.4.78 2.43.9 2.43 1.02 2.45 1.15 2.5 1.3 2.5 1.45 2.58 1.64 2.63 1.83 2.73 2.06 2.82 2.33 2.92 2.64 3.08 3 3.24 3.46 3.43 4 3.7 4.67 4 5.53 4.44 6.67 4.97 8.22 5.75 10.5 7 14.16 9.66 21.8 46.74 115.56 7 14.18 5.76 10.48 4.97 8.23 4.43 6.66 4 5.54 3.7 4.67 3.46 4 3.24 3.46 3.07 3 2.93 2.65 2.8 2.34 2.73 2.06 2.62 1.84 2.57 1.63 2.5 1.45 2.5 1.3 2.44 1.15 2.43 1.02 2.42.9 1.97.64" stroke="#3a414a" stroke-width="2" stroke-linejoin="round" fill="none"/><path d="M752.05 519.05L752 521l-1.05-.03.05-.96-.03-.98z" stroke="#3a414a" stroke-width=".05" fill="#3a414a"/><path d="M975.8 816.7l-14.8 2.46 1.38-9.17z" stroke="#3a414a" stroke-width="2" fill="#3a414a"/><path d="M752 520h278.5" stroke="#3a414a" stroke-width="2" stroke-linejoin="round" fill="none"/><path d="M752.03 520.98h-1.08l.05-.97-.03-.98h1.06z" stroke="#3a414a" stroke-width=".05" fill="#3a414a"/><path d="M1045.76 520l-14.26 4.63v-9.26z" stroke="#3a414a" stroke-width="2" fill="#3a414a"/><path d="M752 519.98l1.87-.04 2.8-.18 2.7-.28 2.66-.4 2.6-.5 2.6-.6 2.54-.7 2.53-.83 2.54-.95 2.54-1.06 2.55-1.2 2.6-1.36 2.6-1.5 2.7-1.7 2.73-1.92 2.82-2.14 2.92-2.42 3.04-2.74 3.18-3.12 3.37-3.58 3.57-4.15 3.84-4.85 4.2-5.78 4.64-7 5.27-8.7 6.2-11.3 7.87-15.9 12.7-28.72 34.36-81.42 7.86-15.9 6.2-11.3 5.26-8.7 4.64-7 4.2-5.78 3.83-4.86 3.58-4.16 3.38-3.58 3.18-3.12 3.04-2.74 2.92-2.42 2.82-2.14 2.74-1.9 2.68-1.7 2.62-1.52 2.6-1.35 2.54-1.2 2.54-1.07 2.54-.95 2.53-.82.5-.14" stroke="#3a414a" stroke-width="2" stroke-linejoin="round" fill="none"/><path d="M752.05 520.95l-1.1.03.05-.97-.03-.97L752 519z" stroke="#3a414a" stroke-width=".05" fill="#3a414a"/><path d="M975.8 240.45l-13.48 6.6-1.3-9.2z" stroke="#3a414a" stroke-width="2" fill="#3a414a"/><defs><linearGradient gradientUnits="userSpaceOnUse" id="a" x1="560" y1="470" x2="750" y2="476.67"><stop offset="0%" stop-color="#a765ff"/><stop offset="33.93%" stop-color="#d2006f"/><stop offset="100%" stop-color="#f97839"/></linearGradient><path fill="#fff" d="M614-1226c-167 1-283 53-283 213 0 183 186 193 334 234 230 63 463 120 463 409 0 286-219 387-518 390C309 23 131-98 79-338l185-37c34 165 149 248 351 246 184-2 324-58 324-238 0-203-207-221-372-266-210-57-422-111-422-377 0-267 201-356 470-360 279-5 430 101 480 324l-188 33c-28-141-121-215-293-213" id="o"/><path fill="#fff" d="M745-142h380V0H143v-142h422v-798H246v-142h499v940zM545-1292v-192h200v192H545" id="p"/><path fill="#fff" d="M904-1102c199 0 220 177 220 381V0H956v-686c-3-114 0-215-60-264-70-33-125-4-158 71-26 56-39 140-39 252V0H531v-686c-3-114-1-215-61-264-78-41-136 24-157 84-24 69-39 159-39 259V0H105c-3-360 6-732-6-1082h149c6 50 3 123 8 175 36-100 83-195 216-195 135 0 166 79 196 196 42-105 93-196 236-196" id="q"/><path fill="#fff" d="M698-1104c312 3 392 244 392 558 0 315-82 566-392 566-169 0-277-65-331-184h-5c8 188 2 394 4 589H185V-858c0-76-1-156-6-224h175c6 52 9 120 10 178h4c58-122 150-202 330-200zm-49 991c225 0 255-203 255-433 0-225-32-419-253-419-236 0-285 192-285 441 0 237 53 411 283 411" id="r"/><path fill="#fff" d="M736-142h380V0H134v-142h422v-1200H267v-142h469v1342" id="s"/><path fill="#fff" d="M168 279c222 39 310-114 368-290L66-1082h192c120 299 249 590 362 896 115-301 235-597 351-896h190L705 0c-65 164-130 320-275 396-67 36-177 35-262 18V279" id="t"/><path fill="#fff" d="M1034 0L896-382H333L196 0H0l510-1349h217L1228 0h-194zM847-531c-77-225-157-447-231-674-69 231-154 451-232 674h463" id="u"/><path fill="#fff" d="M1048-32c-2 300-135 456-433 456-222-1-358-88-400-267l184-25c22 99 100 157 222 156 184-2 248-125 248-315 0-64 3-133-2-194C807-100 706-13 524-12c-306 0-381-228-381-537 0-318 85-550 400-550 164 0 271 83 325 202h3c1-60 3-134 12-185h171c-13 339-4 702-6 1050zM585-145c210-8 284-178 284-406 0-192-52-331-177-392-33-16-69-22-104-22-223 2-259 184-259 414 0 229 31 415 256 406" id="v"/><path fill="#fff" d="M615-1102c343 0 484 203 482 560-1 347-147 562-488 562-336 0-475-219-479-562-4-349 156-560 485-560zm-8 989c240 0 301-180 301-429 0-245-55-427-290-427-236 0-299 181-299 427 0 243 61 429 288 429" id="w"/><g id="b"><use transform="matrix(0.010850694444444439,0,0,0.010850694444444439,0,0)" xlink:href="#o"/><use transform="matrix(0.010850694444444439,0,0,0.010850694444444439,13.335503472222216,0)" xlink:href="#p"/><use transform="matrix(0.010850694444444439,0,0,0.010850694444444439,26.671006944444432,0)" xlink:href="#q"/><use transform="matrix(0.010850694444444439,0,0,0.010850694444444439,40.00651041666665,0)" xlink:href="#r"/><use transform="matrix(0.010850694444444439,0,0,0.010850694444444439,53.342013888888864,0)" xlink:href="#s"/><use transform="matrix(0.010850694444444439,0,0,0.010850694444444439,66.67751736111109,0)" xlink:href="#t"/><use transform="matrix(0.010850694444444439,0,0,0.010850694444444439,80.0130208333333,0)" xlink:href="#u"/><use transform="matrix(0.010850694444444439,0,0,0.010850694444444439,93.34852430555551,0)" xlink:href="#s"/><use transform="matrix(0.010850694444444439,0,0,0.010850694444444439,106.68402777777773,0)" xlink:href="#v"/><use transform="matrix(0.010850694444444439,0,0,0.010850694444444439,120.01953124999994,0)" xlink:href="#w"/></g><path fill="#3a414a" d="M1121-976c0 225-142 341-344 379L1177 0H957L591-575H353V0H162v-1349h482c281 3 477 100 477 373zM633-726c181-1 296-73 296-247 0-149-101-223-304-223H353v470h280" id="x"/><path fill="#3a414a" d="M162 0v-1349h919v156H353v422h668v154H353v461h769V0H162" id="y"/><path fill="#3a414a" d="M614-1226c-167 1-283 53-283 213 0 183 186 193 334 234 230 63 463 120 463 409 0 286-219 387-518 390C309 23 131-98 79-338l185-37c34 165 149 248 351 246 184-2 324-58 324-238 0-203-207-221-372-266-210-57-422-111-422-377 0-267 201-356 470-360 279-5 430 101 480 324l-188 33c-28-141-121-215-293-213" id="z"/><path fill="#3a414a" d="M709-1193V0H519v-1193H76v-156h1076v156H709" id="A"/><g id="c"><use transform="matrix(0.010850694444444439,0,0,0.010850694444444439,0,0)" xlink:href="#x"/><use transform="matrix(0.010850694444444439,0,0,0.010850694444444439,13.335503472222216,0)" xlink:href="#y"/><use transform="matrix(0.010850694444444439,0,0,0.010850694444444439,26.671006944444432,0)" xlink:href="#z"/><use transform="matrix(0.010850694444444439,0,0,0.010850694444444439,40.00651041666665,0)" xlink:href="#A"/></g><path fill="#3a414a" d="M1034 0L896-382H333L196 0H0l510-1349h217L1228 0h-194zM847-531c-77-225-157-447-231-674-69 231-154 451-232 674h463" id="B"/><path fill="#3a414a" d="M622-1349c296 4 497 117 497 404 0 282-193 424-485 431H353V0H162v-1349h460zm-15 684c195-3 320-88 320-277 0-184-129-255-328-254H353v531h254" id="C"/><path fill="#3a414a" d="M202-1349h823v156H709v1037h316V0H202v-156h316v-1037H202v-156" id="D"/><g id="d"><use transform="matrix(0.010850694444444439,0,0,0.010850694444444439,0,0)" xlink:href="#B"/><use transform="matrix(0.010850694444444439,0,0,0.010850694444444439,13.335503472222216,0)" xlink:href="#C"/><use transform="matrix(0.010850694444444439,0,0,0.010850694444444439,26.671006944444432,0)" xlink:href="#D"/></g><path fill="#3a414a" d="M745-142h380V0H143v-142h422v-798H246v-142h499v940zM545-1292v-192h200v192H545" id="E"/><path fill="#3a414a" d="M706-1102c241 0 344 136 343 381V0H868v-695c1-168-57-273-220-268-190 6-283 138-283 336V0H185c-3-360 6-732-6-1082h170c4 54 7 126 8 185h3c63-121 164-204 346-205" id="F"/><path fill="#3a414a" d="M617-1102c355 0 481 238 477 599H322c5 222 84 388 301 388 144 0 244-59 284-166l158 45C1002-72 854 20 623 20c-342 0-490-220-490-568 0-346 151-554 484-554zm291 461c-18-192-90-328-289-328-194 0-287 128-295 328h584" id="G"/><g id="e"><use transform="matrix(0.010850694444444439,0,0,0.010850694444444439,0,0)" xlink:href="#C"/><use transform="matrix(0.010850694444444439,0,0,0.010850694444444439,13.335503472222216,0)" xlink:href="#E"/><use transform="matrix(0.010850694444444439,0,0,0.010850694444444439,26.671006944444432,0)" xlink:href="#F"/><use transform="matrix(0.010850694444444439,0,0,0.010850694444444439,40.00651041666665,0)" xlink:href="#G"/></g><path fill="#3a414a" d="M631 20c-350 0-501-215-501-562 0-355 162-560 502-560 250 0 399 118 446 323l-192 14c-23-124-109-196-262-196-242 0-305 171-305 415 1 245 61 427 304 427 151 0 248-77 267-215l190 12C1039-107 883 20 631 20" id="H"/><path fill="#3a414a" d="M839-1102c70 0 148 7 206 17v167c-112-18-268-36-363 15-129 69-208 203-208 395V0H294c-10-367 32-789-52-1082h171c21 75 41 161 48 250h5c67-152 152-270 373-270" id="I"/><path fill="#3a414a" d="M698-1104c312 3 392 244 392 558 0 315-82 566-392 566-169 0-277-65-331-184h-5c8 188 2 394 4 589H185V-858c0-76-1-156-6-224h175c6 52 9 120 10 178h4c58-122 150-202 330-200zm-49 991c225 0 255-203 255-433 0-225-32-419-253-419-236 0-285 192-285 441 0 237 53 411 283 411" id="J"/><path fill="#3a414a" d="M682 16c-209 0-323-80-324-285v-671H190v-142h170l58-282h120v282h432v142H538v652c2 114 60 155 182 155 106 0 209-16 297-34v137C921-4 806 16 682 16" id="K"/><g id="f"><use transform="matrix(0.010850694444444439,0,0,0.010850694444444439,0,0)" xlink:href="#z"/><use transform="matrix(0.010850694444444439,0,0,0.010850694444444439,13.335503472222216,0)" xlink:href="#H"/><use transform="matrix(0.010850694444444439,0,0,0.010850694444444439,26.671006944444432,0)" xlink:href="#I"/><use transform="matrix(0.010850694444444439,0,0,0.010850694444444439,40.00651041666665,0)" xlink:href="#E"/><use transform="matrix(0.010850694444444439,0,0,0.010850694444444439,53.342013888888864,0)" xlink:href="#J"/><use transform="matrix(0.010850694444444439,0,0,0.010850694444444439,66.67751736111109,0)" xlink:href="#K"/></g><path fill="#3a414a" d="M650-1214c-281 0-336 244-336 533 0 295 60 546 347 546 188 0 263-142 322-282l159 65C1058-155 935 20 659 20c-401 0-546-295-546-701 0-407 135-689 536-689 264 0 391 146 466 335l-168 65c-47-129-127-244-297-244" id="L"/><path fill="#3a414a" d="M1000-272c3 95 12 159 101 161 21 0 41-3 59-7V-6c-44 10-86 16-139 16-141 2-191-84-197-217h-6C748-76 648 20 446 20c-207 0-318-120-318-322 0-266 194-348 454-354l236-4c12-191-40-305-222-305-140 0-220 47-232 172l-188-17c33-204 181-292 423-292 255 0 401 118 401 364v466zm-683-27c0 109 63 184 175 182 166-3 259-96 306-217 24-65 20-120 20-200-232 7-501-28-501 235" id="M"/><g id="g"><use transform="matrix(0.010850694444444439,0,0,0.010850694444444439,0,0)" xlink:href="#L"/><use transform="matrix(0.010850694444444439,0,0,0.010850694444444439,13.335503472222216,0)" xlink:href="#I"/><use transform="matrix(0.010850694444444439,0,0,0.010850694444444439,26.671006944444432,0)" xlink:href="#G"/><use transform="matrix(0.010850694444444439,0,0,0.010850694444444439,40.00651041666665,0)" xlink:href="#M"/><use transform="matrix(0.010850694444444439,0,0,0.010850694444444439,53.342013888888864,0)" xlink:href="#K"/><use transform="matrix(0.010850694444444439,0,0,0.010850694444444439,66.67751736111109,0)" xlink:href="#G"/></g><path fill="#3a414a" d="M1018 0H814c-67-224-138-444-200-673C552-442 476-224 407 0H204L21-1082h178c43 310 105 601 126 933 54-225 128-425 193-638h193c63 212 134 415 185 638 22-336 90-622 136-933h176" id="N"/><path fill="#3a414a" d="M648-963c-190 6-283 138-283 336V0H185v-1484h181c-2 197 6 404-9 587h3c62-120 159-205 339-205 242 0 351 135 350 381V0H868v-695c1-168-57-273-220-268" id="O"/><g id="h"><use transform="matrix(0.010850694444444439,0,0,0.010850694444444439,0,0)" xlink:href="#N"/><use transform="matrix(0.010850694444444439,0,0,0.010850694444444439,13.335503472222216,0)" xlink:href="#E"/><use transform="matrix(0.010850694444444439,0,0,0.010850694444444439,26.671006944444432,0)" xlink:href="#K"/><use transform="matrix(0.010850694444444439,0,0,0.010850694444444439,40.00651041666665,0)" xlink:href="#O"/></g><path fill="#3a414a" d="M904-1102c199 0 220 177 220 381V0H956v-686c-3-114 0-215-60-264-70-33-125-4-158 71-26 56-39 140-39 252V0H531v-686c-3-114-1-215-61-264-78-41-136 24-157 84-24 69-39 159-39 259V0H105c-3-360 6-732-6-1082h149c6 50 3 123 8 175 36-100 83-195 216-195 135 0 166 79 196 196 42-105 93-196 236-196" id="P"/><path fill="#3a414a" d="M736-142h380V0H134v-142h422v-1200H267v-142h469v1342" id="Q"/><path fill="#3a414a" d="M168 279c222 39 310-114 368-290L66-1082h192c120 299 249 590 362 896 115-301 235-597 351-896h190L705 0c-65 164-130 320-275 396-67 36-177 35-262 18V279" id="R"/><path fill="#3a414a" d="M1048-32c-2 300-135 456-433 456-222-1-358-88-400-267l184-25c22 99 100 157 222 156 184-2 248-125 248-315 0-64 3-133-2-194C807-100 706-13 524-12c-306 0-381-228-381-537 0-318 85-550 400-550 164 0 271 83 325 202h3c1-60 3-134 12-185h171c-13 339-4 702-6 1050zM585-145c210-8 284-178 284-406 0-192-52-331-177-392-33-16-69-22-104-22-223 2-259 184-259 414 0 229 31 415 256 406" id="S"/><path fill="#3a414a" d="M615-1102c343 0 484 203 482 560-1 347-147 562-488 562-336 0-475-219-479-562-4-349 156-560 485-560zm-8 989c240 0 301-180 301-429 0-245-55-427-290-427-236 0-299 181-299 427 0 243 61 429 288 429" id="T"/><g id="i"><use transform="matrix(0.010850694444444439,0,0,0.010850694444444439,0,0)" xlink:href="#z"/><use transform="matrix(0.010850694444444439,0,0,0.010850694444444439,13.335503472222216,0)" xlink:href="#E"/><use transform="matrix(0.010850694444444439,0,0,0.010850694444444439,26.671006944444432,0)" xlink:href="#P"/><use transform="matrix(0.010850694444444439,0,0,0.010850694444444439,40.00651041666665,0)" xlink:href="#J"/><use transform="matrix(0.010850694444444439,0,0,0.010850694444444439,53.342013888888864,0)" xlink:href="#Q"/><use transform="matrix(0.010850694444444439,0,0,0.010850694444444439,66.67751736111109,0)" xlink:href="#R"/><use transform="matrix(0.010850694444444439,0,0,0.010850694444444439,80.0130208333333,0)" xlink:href="#B"/><use transform="matrix(0.010850694444444439,0,0,0.010850694444444439,93.34852430555551,0)" xlink:href="#Q"/><use transform="matrix(0.010850694444444439,0,0,0.010850694444444439,106.68402777777773,0)" xlink:href="#S"/><use transform="matrix(0.010850694444444439,0,0,0.010850694444444439,120.01953124999994,0)" xlink:href="#T"/></g><g id="j"><use transform="matrix(0.010850694444444439,0,0,0.010850694444444439,0,0)" xlink:href="#B"/><use transform="matrix(0.010850694444444439,0,0,0.010850694444444439,13.335503472222216,0)" xlink:href="#D"/></g><path fill="#3a414a" d="M865-914c-3-187-2-380-2-570h180v1261c0 76 1 155 6 223H877c-8-49-9-116-10-174h-5C801-44 708 26 530 26c-135 0-234-46-297-139s-95-232-95-419c0-377 131-566 392-566 176 0 271 63 335 184zm-286-51c-222 0-255 197-255 427 0 229 31 425 253 425 237 0 286-195 286-441 0-238-52-411-284-411" id="U"/><g id="k"><use transform="matrix(0.010850694444444439,0,0,0.010850694444444439,0,0)" xlink:href="#y"/><use transform="matrix(0.010850694444444439,0,0,0.010850694444444439,13.335503472222216,0)" xlink:href="#U"/><use transform="matrix(0.010850694444444439,0,0,0.010850694444444439,26.671006944444432,0)" xlink:href="#E"/><use transform="matrix(0.010850694444444439,0,0,0.010850694444444439,40.00651041666665,0)" xlink:href="#K"/><use transform="matrix(0.010850694444444439,0,0,0.010850694444444439,53.342013888888864,0)" xlink:href="#T"/><use transform="matrix(0.010850694444444439,0,0,0.010850694444444439,66.67751736111109,0)" xlink:href="#I"/></g><path fill="#3a414a" d="M473-1349c438-1 655 221 652 661C1122-268 945-8 532 0H162v-1349h311zm42 1193c308-4 416-205 418-532 2-330-131-509-459-505H353v1037h162" id="V"/><path fill="#3a414a" d="M873-819c-18-114-119-146-250-146-163 0-245 50-245 151 0 151 170 148 294 185 182 54 388 94 388 320 0 240-189 325-439 329-245 4-410-69-454-268l159-31c24 133 136 168 295 165 144-2 270-31 270-171 0-164-195-160-331-202-167-52-350-87-350-299 0-218 173-315 413-313 220 2 373 77 412 260" id="W"/><path fill="#3a414a" d="M365-904c58-129 161-200 334-200 130 0 228 46 293 138s98 233 98 420c0 189-34 331-102 425S824 20 698 20c-170 0-275-64-336-184 0 55-3 116-9 164H179c5-68 6-147 6-223v-1261h180c-2 193 4 394-4 580h4zm283 791c221 0 256-197 256-427 0-229-34-425-254-425-236 0-285 195-285 441 0 237 53 411 283 411" id="X"/><g id="l"><use transform="matrix(0.010850694444444439,0,0,0.010850694444444439,0,0)" xlink:href="#V"/><use transform="matrix(0.010850694444444439,0,0,0.010850694444444439,13.335503472222216,0)" xlink:href="#M"/><use transform="matrix(0.010850694444444439,0,0,0.010850694444444439,26.671006944444432,0)" xlink:href="#W"/><use transform="matrix(0.010850694444444439,0,0,0.010850694444444439,40.00651041666665,0)" xlink:href="#O"/><use transform="matrix(0.010850694444444439,0,0,0.010850694444444439,53.342013888888864,0)" xlink:href="#X"/><use transform="matrix(0.010850694444444439,0,0,0.010850694444444439,66.67751736111109,0)" xlink:href="#T"/><use transform="matrix(0.010850694444444439,0,0,0.010850694444444439,80.0130208333333,0)" xlink:href="#M"/><use transform="matrix(0.010850694444444439,0,0,0.010850694444444439,93.34852430555551,0)" xlink:href="#I"/><use transform="matrix(0.010850694444444439,0,0,0.010850694444444439,106.68402777777773,0)" xlink:href="#U"/></g><path fill="#3a414a" d="M932 0L611-444 288 0H94l415-556-397-526h199l300 421 298-421h201L713-558 1133 0H932" id="Y"/><g id="m"><use transform="matrix(0.010850694444444439,0,0,0.010850694444444439,0,0)" xlink:href="#y"/><use transform="matrix(0.010850694444444439,0,0,0.010850694444444439,13.335503472222216,0)" xlink:href="#Y"/><use transform="matrix(0.010850694444444439,0,0,0.010850694444444439,26.671006944444432,0)" xlink:href="#K"/><use transform="matrix(0.010850694444444439,0,0,0.010850694444444439,40.00651041666665,0)" xlink:href="#G"/><use transform="matrix(0.010850694444444439,0,0,0.010850694444444439,53.342013888888864,0)" xlink:href="#I"/><use transform="matrix(0.010850694444444439,0,0,0.010850694444444439,66.67751736111109,0)" xlink:href="#F"/><use transform="matrix(0.010850694444444439,0,0,0.010850694444444439,80.0130208333333,0)" xlink:href="#M"/><use transform="matrix(0.010850694444444439,0,0,0.010850694444444439,93.34852430555551,0)" xlink:href="#Q"/></g><g id="n"><use transform="matrix(0.010850694444444439,0,0,0.010850694444444439,0,0)" xlink:href="#D"/><use transform="matrix(0.010850694444444439,0,0,0.010850694444444439,13.335503472222216,0)" xlink:href="#F"/><use transform="matrix(0.010850694444444439,0,0,0.010850694444444439,26.671006944444432,0)" xlink:href="#K"/><use transform="matrix(0.010850694444444439,0,0,0.010850694444444439,40.00651041666665,0)" xlink:href="#G"/><use transform="matrix(0.010850694444444439,0,0,0.010850694444444439,53.342013888888864,0)" xlink:href="#S"/><use transform="matrix(0.010850694444444439,0,0,0.010850694444444439,66.67751736111109,0)" xlink:href="#I"/><use transform="matrix(0.010850694444444439,0,0,0.010850694444444439,80.0130208333333,0)" xlink:href="#M"/><use transform="matrix(0.010850694444444439,0,0,0.010850694444444439,93.34852430555551,0)" xlink:href="#K"/><use transform="matrix(0.010850694444444439,0,0,0.010850694444444439,106.68402777777773,0)" xlink:href="#E"/><use transform="matrix(0.010850694444444439,0,0,0.010850694444444439,120.01953124999994,0)" xlink:href="#T"/><use transform="matrix(0.010850694444444439,0,0,0.010850694444444439,133.35503472222217,0)" xlink:href="#F"/><use transform="matrix(0.010850694444444439,0,0,0.010850694444444439,146.6905381944444,0)" xlink:href="#W"/></g></defs></g></svg>