<?xml version="1.0" standalone="no"?>
<!DOCTYPE svg PUBLIC "-//W3C//DTD SVG 20010904//EN"
 "http://www.w3.org/TR/2001/REC-SVG-20010904/DTD/svg10.dtd">
<svg version="1.0" xmlns="http://www.w3.org/2000/svg"
 width="1074.000000pt" height="1078.000000pt" viewBox="0 0 1074.000000 1078.000000"
 preserveAspectRatio="xMidYMid meet">

<g transform="translate(0.000000,1078.000000) scale(0.100000,-0.100000)"
fill="#000000" stroke="none">
<path d="M733 8858 c4 -541 7 -1297 7 -1680 l0 -698 793 0 c972 0 2337 -11
2336 -19 0 -3 -184 -178 -407 -388 -224 -209 -663 -622 -976 -917 -313 -295
-573 -536 -578 -536 -5 0 -7 158 -6 360 l3 360 -596 0 -596 0 -6 -1722 c-3
-948 -3 -1725 -1 -1727 2 -3 12 4 22 15 27 28 288 276 1022 970 1106 1046
1221 1155 1711 1619 261 248 681 646 934 885 685 648 1217 1151 1335 1264 58
56 300 286 539 511 l434 410 -294 6 c-162 4 -1214 12 -2339 18 -1125 6 -2082
14 -2127 17 l-83 6 0 552 0 553 467 6 c256 4 1791 7 3410 7 l2943 0 0 -3425 0
-3425 -198 0 c-109 0 -376 3 -592 7 l-393 6 7 621 c3 342 11 1341 16 2221 5
880 12 1723 13 1873 2 149 1 272 -3 272 -4 0 -77 -66 -161 -147 -382 -365
-582 -556 -689 -658 -63 -60 -117 -112 -120 -115 -3 -3 -102 -98 -220 -210
-118 -112 -262 -250 -320 -305 -58 -56 -215 -207 -350 -335 -135 -129 -344
-329 -465 -445 -121 -115 -265 -252 -320 -305 -55 -52 -156 -149 -225 -215
-69 -66 -323 -309 -565 -540 -242 -231 -548 -523 -680 -650 -132 -126 -380
-363 -550 -525 -171 -162 -371 -353 -445 -425 -222 -213 -468 -449 -1169
-1117 -68 -65 -122 -121 -119 -123 2 -2 428 -2 946 2 l942 6 1383 1396 c760
768 1524 1539 1696 1713 173 175 318 318 324 318 6 0 7 -586 2 -1696 l-7
-1697 813 7 c448 3 1207 9 1687 12 l872 7 0 541 c0 298 5 1187 10 1976 26
4015 38 6474 33 6483 -2 4 -2052 7 -4555 7 l-4551 0 6 -982z"/>
</g>
</svg>
